<svg width="549" height="721" viewBox="0 0 549 721" fill="none" xmlns="http://www.w3.org/2000/svg">
<path d="M1 235.424C1 235.424 82.2373 155.527 271.549 162.112C460.861 168.697 545 107 545 107V717H1V235.424Z" fill="#6D6D6D"/>
<path d="M1 235.424C1 235.424 82.2373 155.527 271.549 162.112C460.861 168.697 545 107 545 107V717H1V235.424Z" fill="#6D6D6D"/>
<g opacity="0.5">
<path d="M1 234.381C1 234.381 86.5893 154.536 275.901 161.199C465.213 167.861 545 0 545 0V716H1V234.381Z" fill="#161616"/>
<path d="M1 234.381C1 234.381 86.5893 154.536 275.901 161.199C465.213 167.861 545 0 545 0V716H1V234.381Z" fill="#161616"/>
</g>
<g opacity="0.5">
<path d="M1 234.381C1 234.381 86.5893 154.536 275.901 161.199C465.213 167.861 545 0 545 0V716H1V234.381Z" fill="#161616"/>
<path d="M1 234.381C1 234.381 86.5893 154.536 275.901 161.199C465.213 167.861 545 0 545 0V716H1V234.381Z" fill="#161616"/>
</g>
<rect x="398" y="224" width="147" height="373" fill="black"/>
<rect x="2" y="303" width="396" height="216" fill="white"/>
<g filter="url(#filter0_d)">
<rect x="130" y="457" width="408" height="39" rx="5" fill="black"/>
</g>
<line x1="1" y1="443.5" x2="545" y2="443.5" stroke="black"/>
<path d="M164.5 328.5H175C176.75 328.5 178.017 328.9 178.8 329.7C179.6 330.483 180 331.75 180 333.5V336C180 337.75 179.6 339.025 178.8 339.825C178.017 340.608 176.75 341 175 341H169V346H164.5V328.5ZM175.5 333.5C175.5 332.5 175 332 174 332H169V337.5H174C175 337.5 175.5 337 175.5 336V333.5ZM189.999 346C188.882 346.167 187.816 346.25 186.799 346.25C185.799 346.25 184.957 345.908 184.274 345.225C183.591 344.542 183.249 343.633 183.249 342.5V328.5H187.624V341.875C187.624 342.125 187.707 342.333 187.874 342.5C188.041 342.667 188.249 342.75 188.499 342.75H189.999V346ZM198.245 342.75C199.128 342.75 200.128 342.583 201.245 342.25V340.75H197.62C197.37 340.75 197.162 340.833 196.995 341C196.828 341.167 196.745 341.375 196.745 341.625V341.875C196.745 342.125 196.828 342.333 196.995 342.5C197.162 342.667 197.37 342.75 197.62 342.75H198.245ZM193.62 333C196.67 332.667 199.42 332.5 201.87 332.5C203.003 332.5 203.912 332.842 204.595 333.525C205.278 334.208 205.62 335.117 205.62 336.25V346H201.745L201.495 344.75C200.712 345.267 199.903 345.65 199.07 345.9C198.253 346.133 197.562 346.25 196.995 346.25H196.12C194.987 346.25 194.078 345.908 193.395 345.225C192.712 344.542 192.37 343.633 192.37 342.5V341.375C192.37 340.242 192.712 339.333 193.395 338.65C194.078 337.967 194.987 337.625 196.12 337.625H201.245V336.625C201.245 336.375 201.162 336.167 200.995 336C200.828 335.833 200.62 335.75 200.37 335.75C199.287 335.75 198.087 335.8 196.77 335.9C195.47 336 194.42 336.075 193.62 336.125V333ZM212.369 350.5C211.486 350.5 210.402 350.417 209.119 350.25V347H211.369C212.002 347 212.411 346.825 212.594 346.475C212.794 346.125 212.761 345.633 212.494 345L207.369 332.75H211.994L215.119 341.25L217.744 332.75H222.369L217.369 346.5C216.886 347.817 216.261 348.808 215.494 349.475C214.727 350.158 213.686 350.5 212.369 350.5Z" fill="#C4C4C4"/>
<path d="M173 416H168.5V402H163.25V398.5H178.25V402H173V416ZM185.883 412.625C186.766 412.625 187.766 412.458 188.883 412.125V402.75H193.258V416H189.383L189.133 414.75C188.349 415.267 187.541 415.65 186.708 415.9C185.891 416.133 185.199 416.25 184.633 416.25H183.508C182.374 416.25 181.466 415.908 180.783 415.225C180.099 414.542 179.758 413.633 179.758 412.5V402.75H184.133V411.75C184.133 412 184.216 412.208 184.383 412.375C184.549 412.542 184.758 412.625 185.008 412.625H185.883ZM206.249 416C204.632 416.167 203.049 416.25 201.499 416.25C200.366 416.25 199.457 415.908 198.774 415.225C198.091 414.542 197.749 413.633 197.749 412.5V406.125H196.249V402.75H197.749L198.249 399.75H202.124V402.75H205.249V406.125H202.124V411.875C202.124 412.125 202.207 412.333 202.374 412.5C202.541 412.667 202.749 412.75 202.999 412.75H206.249V416ZM222.271 412.25C222.271 413.5 221.913 414.483 221.196 415.2C220.496 415.9 219.521 416.25 218.271 416.25H212.521C211.271 416.25 210.288 415.9 209.571 415.2C208.871 414.483 208.521 413.5 208.521 412.25V406.5C208.521 405.25 208.871 404.275 209.571 403.575C210.288 402.858 211.271 402.5 212.521 402.5H218.271C219.521 402.5 220.496 402.858 221.196 403.575C221.913 404.275 222.271 405.25 222.271 406.5V412.25ZM217.896 406.875C217.896 406.208 217.563 405.875 216.896 405.875H213.896C213.23 405.875 212.896 406.208 212.896 406.875V411.875C212.896 412.542 213.23 412.875 213.896 412.875H216.896C217.563 412.875 217.896 412.542 217.896 411.875V406.875ZM233.394 406.375C232.344 406.375 231.26 406.625 230.144 407.125V416H225.769V402.75H229.644L229.894 404.375C231.327 403.125 232.827 402.5 234.394 402.5H235.519V406.375H233.394ZM244.018 403.25V416H239.643V406.625H237.768V403.25H244.018ZM239.643 398.25H244.018V401.75H239.643V398.25ZM253.025 412.75C253.909 412.75 254.909 412.583 256.025 412.25V410.75H252.4C252.15 410.75 251.942 410.833 251.775 411C251.609 411.167 251.525 411.375 251.525 411.625V411.875C251.525 412.125 251.609 412.333 251.775 412.5C251.942 412.667 252.15 412.75 252.4 412.75H253.025ZM248.4 403C251.45 402.667 254.2 402.5 256.65 402.5C257.784 402.5 258.692 402.842 259.375 403.525C260.059 404.208 260.4 405.117 260.4 406.25V416H256.525L256.275 414.75C255.492 415.267 254.684 415.65 253.85 415.9C253.034 416.133 252.342 416.25 251.775 416.25H250.9C249.767 416.25 248.859 415.908 248.175 415.225C247.492 414.542 247.15 413.633 247.15 412.5V411.375C247.15 410.242 247.492 409.333 248.175 408.65C248.859 407.967 249.767 407.625 250.9 407.625H256.025V406.625C256.025 406.375 255.942 406.167 255.775 406C255.609 405.833 255.4 405.75 255.15 405.75C254.067 405.75 252.867 405.8 251.55 405.9C250.25 406 249.2 406.075 248.4 406.125V403ZM270.644 416C269.527 416.167 268.46 416.25 267.444 416.25C266.444 416.25 265.602 415.908 264.919 415.225C264.235 414.542 263.894 413.633 263.894 412.5V398.5H268.269V411.875C268.269 412.125 268.352 412.333 268.519 412.5C268.685 412.667 268.894 412.75 269.144 412.75H270.644V416Z" fill="#C4C4C4"/>
<path d="M178 485.75C174.283 486.083 171.2 486.25 168.75 486.25C167.117 486.25 165.917 485.867 165.15 485.1C164.383 484.333 164 483.133 164 481.5V473.5C164 471.75 164.392 470.483 165.175 469.7C165.975 468.9 167.25 468.5 169 468.5H178V472H170C169 472 168.5 472.5 168.5 473.5V481.5C168.5 481.883 168.608 482.192 168.825 482.425C169.058 482.642 169.35 482.75 169.7 482.75C170.05 482.75 170.433 482.75 170.85 482.75C171.267 482.733 171.7 482.717 172.15 482.7C172.6 482.683 173.05 482.667 173.5 482.65C173.967 482.633 174.558 482.6 175.275 482.55C176.008 482.5 176.917 482.442 178 482.375V485.75ZM188.628 476.375C187.578 476.375 186.495 476.625 185.378 477.125V486H181.003V472.75H184.878L185.128 474.375C186.561 473.125 188.061 472.5 189.628 472.5H190.753V476.375H188.628ZM198.389 475.625C197.722 475.625 197.389 475.958 197.389 476.625V478H201.639V476.625C201.639 475.958 201.305 475.625 200.639 475.625H198.389ZM205.514 485.75C202.297 486.083 199.38 486.25 196.764 486.25C195.63 486.25 194.722 485.908 194.039 485.225C193.355 484.542 193.014 483.633 193.014 482.5V476.5C193.014 475.25 193.364 474.275 194.064 473.575C194.78 472.858 195.764 472.5 197.014 472.5H202.014C203.264 472.5 204.239 472.858 204.939 473.575C205.655 474.275 206.014 475.25 206.014 476.5V481.125H197.389V482.125C197.389 482.375 197.472 482.583 197.639 482.75C197.805 482.917 198.014 483 198.264 483C199.914 483 202.33 482.875 205.514 482.625V485.75ZM218.879 486L218.629 484.75C217.846 485.267 217.037 485.65 216.204 485.9C215.387 486.133 214.696 486.25 214.129 486.25H213.004C211.871 486.25 210.962 485.908 210.279 485.225C209.596 484.542 209.254 483.633 209.254 482.5V476.75C209.254 475.5 209.604 474.525 210.304 473.825C211.021 473.108 212.004 472.75 213.254 472.75H218.379V468.5H222.754V486H218.879ZM215.379 482.625C216.262 482.625 217.262 482.458 218.379 482.125V476.125H214.629C213.962 476.125 213.629 476.458 213.629 477.125V481.75C213.629 482 213.712 482.208 213.879 482.375C214.046 482.542 214.254 482.625 214.504 482.625H215.379ZM232.001 473.25V486H227.626V476.625H225.751V473.25H232.001ZM227.626 468.25H232.001V471.75H227.626V468.25ZM245.009 486C243.392 486.167 241.809 486.25 240.259 486.25C239.125 486.25 238.217 485.908 237.534 485.225C236.85 484.542 236.509 483.633 236.509 482.5V476.125H235.009V472.75H236.509L237.009 469.75H240.884V472.75H244.009V476.125H240.884V481.875C240.884 482.125 240.967 482.333 241.134 482.5C241.3 482.667 241.509 482.75 241.759 482.75H245.009V486ZM247.52 482.5C250.903 482.75 253.57 482.875 255.52 482.875C255.77 482.875 255.978 482.792 256.145 482.625C256.311 482.458 256.395 482.25 256.395 482V481.125H251.02C249.886 481.125 248.978 480.783 248.295 480.1C247.611 479.417 247.27 478.508 247.27 477.375V476.5C247.27 475.367 247.611 474.458 248.295 473.775C248.978 473.092 249.886 472.75 251.02 472.75H259.52V476H252.52C252.27 476 252.061 476.083 251.895 476.25C251.728 476.417 251.645 476.625 251.645 476.875C251.645 477.125 251.728 477.333 251.895 477.5C252.061 477.667 252.27 477.75 252.52 477.75H257.02C258.153 477.75 259.061 478.092 259.745 478.775C260.428 479.458 260.77 480.367 260.77 481.5V482.5C260.77 483.633 260.428 484.542 259.745 485.225C259.061 485.908 258.153 486.25 257.02 486.25C254.07 486.25 250.903 486.083 247.52 485.75V482.5Z" fill="#C4C4C4"/>
<rect x="2" y="303" width="396" height="216" fill="white"/>
<g filter="url(#filter1_d)">
<rect x="130" y="388" width="415" height="39" rx="5" fill="black"/>
</g>
<g filter="url(#filter2_d)">
<rect x="130" y="319" width="412" height="40" rx="5" fill="black"/>
</g>
<g filter="url(#filter3_d)">
<rect x="130" y="457" width="406" height="39" rx="5" fill="black"/>
</g>
<line y1="-0.5" x2="543.751" y2="-0.5" transform="matrix(0.999998 -0.00181358 0.00390018 0.999992 1 339.146)" stroke="black"/>
<line y1="-0.5" x2="543.751" y2="-0.5" transform="matrix(0.999998 -0.00181841 0.00391058 0.999992 1 409.348)" stroke="black"/>
<line y1="-0.5" x2="542.301" y2="-0.5" transform="matrix(0.999998 -0.00179922 0.0038693 0.999993 2.44995 519.101)" stroke="black"/>
<line x1="5" y1="302.5" x2="540" y2="302.5" stroke="black"/>
<line x1="1" y1="371.5" x2="546" y2="371.5" stroke="black"/>
<line x1="2" y1="476.5" x2="545" y2="476.5" stroke="black"/>
<line x1="2" y1="440.5" x2="545" y2="440.5" stroke="black"/>
<rect x="2" y="519" width="346" height="202" fill="#181818"/>
<rect x="1" y="519" width="347" height="202" fill="#181818"/>
<rect x="161" y="518" width="237" height="83" fill="#181818"/>
<rect x="308" y="597" width="237" height="124" fill="#181818"/>
<defs>
<filter id="filter0_d" x="126" y="457" width="416" height="47" filterUnits="userSpaceOnUse" color-interpolation-filters="sRGB">
<feFlood flood-opacity="0" result="BackgroundImageFix"/>
<feColorMatrix in="SourceAlpha" type="matrix" values="0 0 0 0 0 0 0 0 0 0 0 0 0 0 0 0 0 0 127 0"/>
<feOffset dy="4"/>
<feGaussianBlur stdDeviation="2"/>
<feColorMatrix type="matrix" values="0 0 0 0 0 0 0 0 0 0 0 0 0 0 0 0 0 0 0.25 0"/>
<feBlend mode="normal" in2="BackgroundImageFix" result="effect1_dropShadow"/>
<feBlend mode="normal" in="SourceGraphic" in2="effect1_dropShadow" result="shape"/>
</filter>
<filter id="filter1_d" x="126" y="388" width="423" height="47" filterUnits="userSpaceOnUse" color-interpolation-filters="sRGB">
<feFlood flood-opacity="0" result="BackgroundImageFix"/>
<feColorMatrix in="SourceAlpha" type="matrix" values="0 0 0 0 0 0 0 0 0 0 0 0 0 0 0 0 0 0 127 0"/>
<feOffset dy="4"/>
<feGaussianBlur stdDeviation="2"/>
<feColorMatrix type="matrix" values="0 0 0 0 0 0 0 0 0 0 0 0 0 0 0 0 0 0 0.25 0"/>
<feBlend mode="normal" in2="BackgroundImageFix" result="effect1_dropShadow"/>
<feBlend mode="normal" in="SourceGraphic" in2="effect1_dropShadow" result="shape"/>
</filter>
<filter id="filter2_d" x="126" y="319" width="420" height="48" filterUnits="userSpaceOnUse" color-interpolation-filters="sRGB">
<feFlood flood-opacity="0" result="BackgroundImageFix"/>
<feColorMatrix in="SourceAlpha" type="matrix" values="0 0 0 0 0 0 0 0 0 0 0 0 0 0 0 0 0 0 127 0"/>
<feOffset dy="4"/>
<feGaussianBlur stdDeviation="2"/>
<feColorMatrix type="matrix" values="0 0 0 0 0 0 0 0 0 0 0 0 0 0 0 0 0 0 0.25 0"/>
<feBlend mode="normal" in2="BackgroundImageFix" result="effect1_dropShadow"/>
<feBlend mode="normal" in="SourceGraphic" in2="effect1_dropShadow" result="shape"/>
</filter>
<filter id="filter3_d" x="126" y="457" width="414" height="47" filterUnits="userSpaceOnUse" color-interpolation-filters="sRGB">
<feFlood flood-opacity="0" result="BackgroundImageFix"/>
<feColorMatrix in="SourceAlpha" type="matrix" values="0 0 0 0 0 0 0 0 0 0 0 0 0 0 0 0 0 0 127 0"/>
<feOffset dy="4"/>
<feGaussianBlur stdDeviation="2"/>
<feColorMatrix type="matrix" values="0 0 0 0 0 0 0 0 0 0 0 0 0 0 0 0 0 0 0.25 0"/>
<feBlend mode="normal" in2="BackgroundImageFix" result="effect1_dropShadow"/>
<feBlend mode="normal" in="SourceGraphic" in2="effect1_dropShadow" result="shape"/>
</filter>
</defs>
</svg>
